<svg width="20" height="20" viewBox="0 0 20 20" fill="none" xmlns="http://www.w3.org/2000/svg">
<g id="Frame">
<path id="Vector" d="M15.3574 1.72852H12.1406C11.7207 1.72852 11.3828 2.06836 11.3828 2.48633C11.3828 2.9043 11.7227 3.24414 12.1406 3.24414H15.3574C17.0293 3.24414 18.3906 4.60352 18.3906 6.27539V13.8574C18.3906 15.5293 17.0293 16.8887 15.3574 16.8887H12.0879C11.668 16.8887 11.3301 17.2285 11.3301 17.6465C11.3301 18.0645 11.6699 18.4043 12.0879 18.4043H15.3594C17.8672 18.4043 19.9082 16.3633 19.9082 13.8574V6.27734C19.9063 3.76953 17.8652 1.72852 15.3574 1.72852ZM8.4043 16.8906H4.61719C2.94531 16.8906 1.58594 15.5312 1.58594 13.8594V6.27734C1.58594 4.60547 2.94727 3.24609 4.61719 3.24609H8.34961C8.76953 3.24609 9.10742 2.90625 9.10742 2.48828C9.10742 2.07031 8.76953 1.72852 8.34961 1.72852H4.61719C2.10937 1.72852 0.0703125 3.76953 0.0703125 6.27734V13.8594C0.0703125 16.3672 2.10937 18.4063 4.61719 18.4063H8.40234C8.82227 18.4063 9.16016 18.0664 9.16016 17.6484C9.16016 17.2305 8.82227 16.8906 8.4043 16.8906Z" fill="white"/>
<path id="Vector_2" d="M11.3496 13.2578C11.498 13.4062 11.6914 13.4805 11.8848 13.4805C12.0781 13.4805 12.2734 13.4062 12.4199 13.2578L15.0723 10.6055C15.3691 10.3086 15.3691 9.83008 15.0723 9.5332L12.4219 6.87891C12.125 6.58203 11.6465 6.58203 11.3496 6.87891C11.0527 7.17578 11.0527 7.6543 11.3496 7.95117L12.709 9.31055H5.0625C4.64258 9.31055 4.30469 9.65039 4.30469 10.0684C4.30469 10.4883 4.64453 10.8262 5.0625 10.8262H12.709L11.3496 12.1855C11.0527 12.4805 11.0527 12.9609 11.3496 13.2578Z" fill="white"/>
</g>
</svg>
