<svg width="20" height="20" viewBox="0 0 20 20" fill="none" xmlns="http://www.w3.org/2000/svg">
<g id="Frame">
<path id="Vector" d="M6.15 12.1C6.24283 12.1 6.33185 12.1369 6.39749 12.2025C6.46313 12.2682 6.5 12.3572 6.5 12.45C6.5 12.5428 6.46313 12.6318 6.39749 12.6975C6.33185 12.7631 6.24283 12.8 6.15 12.8H4.75C4.28587 12.8 3.84075 12.6156 3.51256 12.2874C3.18437 11.9592 3 11.5141 3 11.05V4.75C3 4.28587 3.18437 3.84075 3.51256 3.51256C3.84075 3.18437 4.28587 3 4.75 3H11.05C11.5141 3 11.9592 3.18437 12.2874 3.51256C12.6156 3.84075 12.8 4.28587 12.8 4.75V6.15C12.8 6.24283 12.7631 6.33185 12.6975 6.39749C12.6318 6.46313 12.5428 6.5 12.45 6.5C12.3572 6.5 12.2682 6.46313 12.2025 6.39749C12.1369 6.33185 12.1 6.24283 12.1 6.15V4.75C12.1 4.47152 11.9894 4.20445 11.7925 4.00754C11.5955 3.81062 11.3285 3.7 11.05 3.7H4.75C4.47152 3.7 4.20445 3.81062 4.00754 4.00754C3.81062 4.20445 3.7 4.47152 3.7 4.75V11.05C3.7 11.1879 3.72716 11.3244 3.77993 11.4518C3.83269 11.5792 3.91004 11.695 4.00754 11.7925C4.10504 11.89 4.22079 11.9673 4.34818 12.0201C4.47557 12.0728 4.61211 12.1 4.75 12.1H6.15ZM8.95 7.9C8.67152 7.9 8.40445 8.01062 8.20754 8.20754C8.01062 8.40445 7.9 8.67152 7.9 8.95V15.25C7.9 15.5285 8.01062 15.7955 8.20754 15.9925C8.40445 16.1894 8.67152 16.3 8.95 16.3H15.25C15.5285 16.3 15.7955 16.1894 15.9925 15.9925C16.1894 15.7955 16.3 15.5285 16.3 15.25V8.95C16.3 8.67152 16.1894 8.40445 15.9925 8.20754C15.7955 8.01062 15.5285 7.9 15.25 7.9H8.95ZM8.95 7.2H15.25C15.7141 7.2 16.1592 7.38437 16.4874 7.71256C16.8156 8.04075 17 8.48587 17 8.95V15.25C17 15.7141 16.8156 16.1592 16.4874 16.4874C16.1592 16.8156 15.7141 17 15.25 17H8.95C8.48587 17 8.04075 16.8156 7.71256 16.4874C7.38437 16.1592 7.2 15.7141 7.2 15.25V8.95C7.2 8.48587 7.38437 8.04075 7.71256 7.71256C8.04075 7.38437 8.48587 7.2 8.95 7.2Z" fill="white"/>
</g>
</svg>
