<svg width="108" height="108" viewBox="0 0 108 108" fill="none" xmlns="http://www.w3.org/2000/svg">
<g id="Frame">
<path id="Vector" d="M60.3706 86.9326C68.2196 86.9326 74.5825 80.5665 74.5825 72.7143C74.5825 64.8622 68.2207 58.4961 60.3706 58.4961C52.5206 58.4961 46.1587 64.8622 46.1587 72.7143C46.1587 80.5665 52.5216 86.9326 60.3706 86.9326ZM39.819 72.7143C39.819 61.3585 49.0201 52.1532 60.3706 52.1532C71.7212 52.1532 80.9223 61.3585 80.9223 72.7143C80.9286 77.1039 79.5248 81.3786 76.9176 84.9086L85.8055 93.8007C86.1989 94.1944 86.4818 94.6846 86.6258 95.2222C86.7698 95.7598 86.7699 96.3259 86.626 96.8635C86.4821 97.4011 86.1993 97.8913 85.8059 98.285C85.4124 98.6786 84.9223 98.9617 84.3848 99.1058C83.8473 99.2497 83.2814 99.2497 82.744 99.1057C82.2066 98.9616 81.7165 98.6787 81.323 98.2852L72.4152 89.3742C68.9142 91.916 64.697 93.2816 60.3706 93.2744C49.0201 93.2755 39.819 84.0702 39.819 72.7143ZM22.5959 53.9483C22.5959 52.1986 24.0145 50.7789 25.7642 50.7789H40.6564C42.4061 50.7789 43.8247 52.1975 43.8247 53.9483V53.9525C43.8247 55.7022 42.4061 57.1218 40.6564 57.1218H25.7642C24.0145 57.1218 22.5959 55.7033 22.5959 53.9525V53.9483ZM25.7632 66.112H33.6786C35.4283 66.112 36.8458 67.5305 36.8469 69.2813C36.8469 71.0311 35.4283 72.4507 33.6786 72.4507H25.7632C24.0134 72.4507 22.5949 71.0321 22.5949 69.2813C22.5959 67.5305 24.0134 66.112 25.7632 66.112ZM25.7632 35.4512H60.2905C60.8487 35.4481 61.3977 35.5925 61.8822 35.8697C62.3667 36.147 62.7694 36.5472 63.0495 37.03C63.6191 38.013 63.6191 39.227 63.0495 40.2099C62.7697 40.693 62.3671 41.0936 61.8826 41.3709C61.398 41.6481 60.8487 41.7923 60.2905 41.7888H25.7632C25.205 41.7918 24.6559 41.6475 24.1714 41.3702C23.6869 41.093 23.2843 40.6927 23.0041 40.2099C22.4346 39.227 22.4346 38.013 23.0041 37.03C23.2843 36.5472 23.6869 36.147 24.1714 35.8697C24.6559 35.5925 25.205 35.4481 25.7632 35.4512ZM95.8239 86.6151H88.6373C86.8865 86.6151 85.4669 85.1955 85.4669 83.4437C85.4669 81.6918 86.8865 80.2722 88.6373 80.2722H92.6546C93.8221 80.2722 94.7682 79.3262 94.7682 78.1576V15.1927C94.7682 14.0252 93.8221 13.0781 92.6546 13.0781H36.9671C35.7996 13.0781 34.8535 14.0241 34.8535 15.1927V18.1522H73.9518C76.8702 18.1522 79.2348 20.5189 79.2348 23.4372V47.0496C79.3386 47.6286 79.2793 48.2252 79.0634 48.7724C78.8475 49.3197 78.4836 49.7961 78.0124 50.1482C77.5413 50.5004 76.9815 50.7145 76.3957 50.7664C75.8098 50.8184 75.2211 50.7062 74.6954 50.4425C74.1696 50.1787 73.7275 49.7739 73.4187 49.2732C73.1099 48.7725 72.9464 48.1958 72.9467 47.6075H72.895V26.6097C72.895 25.4422 71.949 24.4951 70.7814 24.4951H15.0939C13.9264 24.4951 12.9804 25.4411 12.9804 26.6097V92.7471C12.9804 93.9146 13.9264 94.8617 15.0939 94.8617H50.7034C52.4541 94.8617 53.8737 96.2813 53.8737 98.0332C53.8737 99.785 52.4541 101.205 50.7034 101.205H11.9236C9.00523 101.205 6.64062 98.8379 6.64062 95.9196V23.4383C6.64062 20.5189 9.00629 18.1532 11.9236 18.1532H28.5127V12.0223C28.5127 9.10297 30.8784 6.7373 33.7957 6.7373H95.8229C98.7412 6.7373 101.106 9.10402 101.106 12.0223V81.3301C101.107 84.2484 98.7423 86.6151 95.8239 86.6151Z" fill="#5C5C5C"/>
</g>
</svg>
