<svg width="30" height="31" viewBox="0 0 30 31" fill="none" xmlns="http://www.w3.org/2000/svg">
<g id="Vector">
<path d="M15.1509 14.1789L11.1488 8.27104H9.02064L13.9756 15.5903L14.595 16.5093L18.8354 22.7782H20.9635L15.7702 15.0979L15.1509 14.1789Z" fill="white"/>
<path d="M22.5675 0H7.4325C3.31921 0 0 3.44627 0 7.68025V23.3197C0 27.5701 3.3351 31 7.4325 31H22.5675C26.6808 31 30 27.5537 30 23.3197V7.68025C30 3.44627 26.6649 0 22.5675 0ZM18.1842 23.8121L13.8962 17.3626L8.52832 23.8121H7.14664L13.2927 16.4272L7.14664 7.18793H11.8317L15.8973 13.2927L20.9794 7.18793H22.361L16.5008 14.2282L22.8692 23.8121H18.1842Z" fill="white"/>
</g>
</svg>
