<svg width="31" height="31" viewBox="0 0 31 31" fill="none" xmlns="http://www.w3.org/2000/svg">
<path id="Vector" d="M23.3197 0H7.68025C3.44627 0 0 3.44627 0 7.68025V23.3197C0 27.5701 3.44627 31 7.68025 31H23.3197C27.5701 31 31 27.5537 31 23.3197V7.68025C31 3.44627 27.5701 0 23.3197 0ZM10.8968 23.8121C9.76443 23.8121 8.63208 23.8121 7.48332 23.8121C7.48332 20.1361 7.48332 16.4436 7.48332 12.7348C8.63208 12.7348 9.76443 12.7348 10.8968 12.7348C10.8968 16.4272 10.8968 20.1196 10.8968 23.8121ZM9.19005 11.2086C8.09052 11.2086 7.18793 10.2896 7.18793 9.19005C7.18793 8.10693 8.09052 7.20434 9.17364 7.18793C10.2732 7.18793 11.1758 8.07411 11.1758 9.17364C11.1758 10.2896 10.2896 11.1922 9.19005 11.2086ZM23.8121 23.7792C22.6633 23.7792 21.531 23.7792 20.3658 23.7792C20.3658 23.7136 20.3658 23.6316 20.3658 23.5495C20.3658 21.7443 20.3658 19.9227 20.3658 18.1175C20.3658 17.7073 20.333 17.297 20.2509 16.8867C20.0376 15.7544 19.2991 15.3605 18.2488 15.4918C17.2806 15.6067 16.7554 16.1646 16.6077 17.2149C16.5585 17.5924 16.5257 17.9862 16.5257 18.3637C16.5093 20.1032 16.5257 21.8264 16.5257 23.5659C16.5257 23.648 16.5257 23.73 16.5257 23.8285C15.3769 23.8285 14.2446 23.8285 13.0794 23.8285C13.0794 20.1361 13.0794 16.46 13.0794 12.7512C14.1789 12.7512 15.262 12.7512 16.3616 12.7512C16.3616 13.2435 16.3616 13.7358 16.3616 14.2446C16.4108 14.2282 16.4272 14.2118 16.4436 14.2118C17.1821 13.0302 18.2816 12.5214 19.6273 12.4886C20.3822 12.4722 21.1207 12.5707 21.8264 12.8989C22.729 13.3256 23.2213 14.0805 23.5003 14.9995C23.73 15.738 23.7957 16.5093 23.8121 17.2806C23.8285 19.414 23.8285 21.5638 23.8285 23.6972C23.8121 23.6972 23.8121 23.73 23.8121 23.7792Z" fill="white"/>
</svg>
