<svg width="30" height="30" viewBox="0 0 30 30" fill="none" xmlns="http://www.w3.org/2000/svg">
<g id="Frame" clip-path="url(#clip0_419_593)">
<path id="Vector" d="M24.9426 26.2285L23.2284 26.0571L23.8284 20.7428L26.8284 14.9142C26.9141 14.8285 26.8284 14.7428 26.8284 14.6571C26.8284 14.5713 26.7426 14.4856 26.6569 14.4856L14.8284 11.1428L3.08551 14.4856C2.99979 14.4856 2.91408 14.5713 2.91408 14.6571C2.91408 14.7428 2.82836 14.8285 2.91408 14.9142L6.17122 20.6571L6.77122 25.9713L5.05693 26.1428L4.45693 21.1713L1.37122 15.6856C1.02836 15.1713 1.02836 14.4856 1.28551 13.9713C1.54265 13.3713 1.97122 12.9428 2.57122 12.7713L14.7426 9.34277L26.9998 12.7713C27.5998 12.9428 28.0284 13.3713 28.2855 13.8856C28.5426 14.3999 28.5426 15.0856 28.1998 15.5999L25.3712 21.0856L24.9426 26.2285ZM14.8284 29.5713C13.9712 29.5713 13.1998 29.3142 12.4284 28.8856C11.5712 28.2856 10.3712 28.2856 9.51408 28.8856C8.05693 29.8285 6.17122 29.8285 4.71408 28.8856C3.85693 28.2856 2.65693 28.2856 1.79979 28.8856L1.28551 28.1999L0.856934 27.4285H0.942648C2.39979 26.4856 4.2855 26.4856 5.74265 27.4285C6.59979 28.0285 7.79979 28.0285 8.65693 27.4285C10.1141 26.4856 11.9998 26.4856 13.4569 27.4285C14.3141 28.0285 15.5141 28.0285 16.3712 27.4285C17.8284 26.4856 19.7141 26.4856 21.1712 27.4285C22.0284 28.0285 23.2284 28.0285 24.0855 27.4285C25.5426 26.4856 27.4284 26.5713 28.8855 27.5999L29.1426 27.7713L28.0284 29.1428L27.7712 28.9713C26.9141 28.3713 25.7998 28.3713 24.9426 28.8856C23.4855 29.8285 21.5998 29.8285 20.1426 28.8856C19.2855 28.2856 18.0855 28.2856 17.2284 28.8856C16.5426 29.3142 15.6855 29.5713 14.8284 29.5713Z" fill="black"/>
<path id="Vector_2" d="M7.11419 13.3713L5.3999 13.2856L5.65704 5.3999C5.65704 4.28561 6.5999 3.42847 7.62847 3.42847H22.0285C23.1428 3.42847 23.9999 4.28561 23.9999 5.3999L24.257 13.2856L22.5428 13.3713L22.2856 5.48561C22.2856 5.31418 22.1142 5.22847 22.0285 5.22847H7.62847C7.45705 5.14275 7.37133 5.22847 7.37133 5.3999L7.11419 13.3713Z" fill="black"/>
<path id="Vector_3" d="M10.543 6.85714H19.1144V8.57143H10.543V6.85714ZM13.9715 10.4571H15.6858V20.7429H13.9715V10.4571ZM19.1144 4.28571H17.4001V1.71429H12.2573V4.28571H10.543V0H19.1144V4.28571Z" fill="black"/>
</g>
<defs>
<clipPath id="clip0_419_593">
<rect width="30" height="30" fill="white"/>
</clipPath>
</defs>
</svg>
