<svg width="100" height="64" viewBox="0 0 100 64" fill="none" xmlns="http://www.w3.org/2000/svg">
<g id="Group 46">
<path id="Vector" d="M27.7866 30.4806C28.0286 30.4806 28.2544 30.4806 28.4963 30.4806C44.5294 30.4806 60.5786 30.4806 76.6117 30.4806C76.8698 30.4806 77.144 30.4644 77.402 30.5128C78.3537 30.6741 79.0312 31.5451 78.9989 32.4968C78.9666 33.4807 78.1763 34.2711 77.1762 34.3356C76.9504 34.3518 76.7407 34.3356 76.5149 34.3356C60.5141 34.3356 44.5133 34.3356 28.5125 34.3356C28.2705 34.3356 28.0286 34.3356 27.6737 34.3356C27.8834 34.5614 28.0286 34.7227 28.1737 34.8679C30.7545 37.4648 33.3514 40.0618 35.9322 42.6426C36.5129 43.2232 36.7064 43.9168 36.4484 44.6911C36.2064 45.4492 35.6419 45.8847 34.8515 45.9815C34.1579 46.0782 33.6095 45.7879 33.1256 45.304C29.5932 41.7554 26.0446 38.2068 22.496 34.6744C22.1896 34.3679 21.8831 34.0775 21.6089 33.7711C20.8024 32.9162 20.7863 31.8677 21.625 31.029C25.4155 27.2223 29.2383 23.4156 33.0611 19.609C33.8676 18.8025 35.0451 18.8025 35.8193 19.5767C36.5774 20.3348 36.5774 21.5284 35.7709 22.3349C33.2547 24.8512 30.7384 27.3675 28.2221 29.8838C28.0608 30.0451 27.8834 30.158 27.706 30.3031C27.7382 30.3677 27.7544 30.4322 27.7866 30.4806Z" fill="white"/>
<rect id="Rectangle 156" x="-0.5" y="0.5" width="99" height="63" rx="9.5" transform="matrix(-1 0 0 1 99 0)" stroke="#D9D9D9"/>
</g>
</svg>
